<svg width="53" height="53" viewBox="0 0 53 53" fill="none" xmlns="http://www.w3.org/2000/svg">
<path d="M26.4999 53C41.1354 53 52.9999 41.1355 52.9999 26.5C52.9999 11.8645 41.1354 0 26.4998 0C11.8644 0 0 11.8645 0 26.5C0 41.1355 11.8643 53 26.5 53" fill="#FFF200"/>
<path d="M21.6978 38.8984L42.763 17.8332C43.114 17.4821 43.3095 17.0169 43.3134 16.5234C43.3173 16.0226 43.1246 15.552 42.7707 15.1982C42.7708 15.1974 42.7707 15.1981 42.7707 15.1981L42.7706 15.198C42.4256 14.8531 41.9431 14.6567 41.4516 14.6586C40.9536 14.6607 40.4863 14.8551 40.1356 15.2057L20.4271 34.9144L14.3703 28.8575C14.0195 28.5067 13.552 28.3123 13.0542 28.3103H13.0468C12.5561 28.3103 12.0785 28.5069 11.7353 28.8501C11.011 29.5744 11.0144 30.7564 11.7429 31.4849L18.7514 38.4935C18.8354 38.645 18.9402 38.7839 19.0628 38.9063C19.4236 39.267 19.8978 39.4471 20.3731 39.447C20.6191 39.4473 20.8628 39.399 21.0901 39.3048C21.3174 39.2107 21.5239 39.0726 21.6978 38.8984ZM26.5 0C11.8645 0 0 11.8645 0 26.5C0 41.1356 11.8645 53 26.5 53C41.1355 53 53 41.1356 53 26.5C53 11.8644 41.1355 0 26.5 0ZM26.5 2.61152C29.726 2.61152 32.8543 3.24279 35.7977 4.48777C38.642 5.69077 41.197 7.41359 43.3917 9.60831C45.5864 11.803 47.3092 14.358 48.5123 17.2024C49.7572 20.1457 50.3885 23.274 50.3885 26.5C50.3885 29.7261 49.7572 32.8543 48.5123 35.7977C47.3092 38.642 45.5864 41.197 43.3917 43.3918C41.197 45.5865 38.642 47.3092 35.7977 48.5123C32.8543 49.7573 29.726 50.3885 26.5 50.3885C23.274 50.3885 20.1457 49.7573 17.2023 48.5123C14.358 47.3092 11.803 45.5865 9.60831 43.3918C7.41359 41.197 5.69077 38.642 4.48771 35.7977C3.24279 32.8543 2.61152 29.7261 2.61152 26.5C2.61152 23.274 3.24279 20.1457 4.48771 17.2024C5.69077 14.358 7.41359 11.803 9.60831 9.60831C11.803 7.41359 14.358 5.69077 17.2023 4.48777C20.1457 3.24273 23.274 2.61152 26.5 2.61152Z" fill="black"/>
</svg>
