<svg width="44" height="44" viewBox="0 0 44 44" fill="none" xmlns="http://www.w3.org/2000/svg">
<path d="M14.7539 21.9886L19.5745 26.8292L29.2357 17.1479" stroke="#000DFF" stroke-width="3.75" stroke-linecap="round" stroke-linejoin="round"/>
<path d="M19.4922 2.88511C20.8724 1.70496 23.1326 1.70496 24.5328 2.88511L27.6932 5.60545C28.2933 6.12551 29.4134 6.54557 30.2135 6.54557H33.6139C35.7342 6.54557 37.4744 8.28578 37.4744 10.406V13.8065C37.4744 14.5866 37.8945 15.7267 38.4145 16.3268L41.1349 19.4871C42.315 20.8672 42.315 23.1275 41.1349 24.5277L38.4145 27.6881C37.8945 28.2882 37.4744 29.4083 37.4744 30.2084V33.6088C37.4744 35.7291 35.7342 37.4693 33.6139 37.4693H30.2135C29.4334 37.4693 28.2933 37.8894 27.6932 38.4094L24.5328 41.1298C23.1526 42.3099 20.8924 42.3099 19.4922 41.1298L16.3318 38.4094C15.7317 37.8894 14.6116 37.4693 13.8115 37.4693H10.351C8.23078 37.4693 6.49056 35.7291 6.49056 33.6088V30.1884C6.49056 29.4083 6.07051 28.2882 5.57045 27.6881L2.87011 24.5077C1.70996 23.1275 1.70996 20.8873 2.87011 19.5071L5.57045 16.3268C6.07051 15.7267 6.49056 14.6066 6.49056 13.8265V10.386C6.49056 8.26578 8.23078 6.52556 10.351 6.52556H13.8115C14.5916 6.52556 15.7317 6.10551 16.3318 5.58545L19.4922 2.88511Z" stroke="#292D32" stroke-width="3.75" stroke-linecap="round" stroke-linejoin="round"/>
</svg>
