<svg width="20" height="20" viewBox="0 0 20 20" fill="none" xmlns="http://www.w3.org/2000/svg">
<g id="material-symbols:date-range-sharp">
<path id="Vector" d="M6.83333 12.0005C6.60903 12.0005 6.42088 11.9245 6.26888 11.7725C6.11688 11.6205 6.04114 11.4326 6.04167 11.2088C6.04167 10.9845 6.11767 10.7964 6.26967 10.6444C6.42167 10.4924 6.60956 10.4166 6.83333 10.4172C7.05764 10.4172 7.24579 10.4932 7.39779 10.6452C7.54979 10.7972 7.62553 10.985 7.625 11.2088C7.625 11.4331 7.549 11.6213 7.397 11.7733C7.245 11.9253 7.05711 12.001 6.83333 12.0005ZM10 12.0005C9.77569 12.0005 9.58754 11.9245 9.43554 11.7725C9.28354 11.6205 9.20781 11.4326 9.20833 11.2088C9.20833 10.9845 9.28433 10.7964 9.43633 10.6444C9.58833 10.4924 9.77622 10.4166 10 10.4172C10.2243 10.4172 10.4125 10.4932 10.5645 10.6452C10.7165 10.7972 10.7922 10.985 10.7917 11.2088C10.7917 11.4331 10.7157 11.6213 10.5637 11.7733C10.4117 11.9253 10.2238 12.001 10 12.0005ZM13.1667 12.0005C12.9424 12.0005 12.7542 11.9245 12.6022 11.7725C12.4502 11.6205 12.3745 11.4326 12.375 11.2088C12.375 10.9845 12.451 10.7964 12.603 10.6444C12.755 10.4924 12.9429 10.4166 13.1667 10.4172C13.391 10.4172 13.5791 10.4932 13.7311 10.6452C13.8831 10.7972 13.9589 10.985 13.9583 11.2088C13.9583 11.4331 13.8823 11.6213 13.7303 11.7733C13.5783 11.9253 13.3904 12.001 13.1667 12.0005ZM2.875 18.3338V4.08382H5.25V2.50049H6.83333V4.08382H13.1667V2.50049H14.75V4.08382H17.125V18.3338H2.875ZM4.45833 16.7505H15.5417V8.83382H4.45833V16.7505Z" fill="#4F4F4F"/>
</g>
</svg>
