<svg width="23" height="23" viewBox="0 0 23 23" fill="none" xmlns="http://www.w3.org/2000/svg">
<g id="ion:share-outline">
<path id="Vector" d="M14.6367 8.75H16.3555C16.8113 8.75 17.2485 8.93108 17.5708 9.25341C17.8931 9.57574 18.0742 10.0129 18.0742 10.4688V18.7188C18.0742 19.1746 17.8931 19.6118 17.5708 19.9341C17.2485 20.2564 16.8113 20.4375 16.3555 20.4375H6.04297C5.58713 20.4375 5.14996 20.2564 4.82763 19.9341C4.5053 19.6118 4.32422 19.1746 4.32422 18.7188V10.4688C4.32422 10.0129 4.5053 9.57574 4.82763 9.25341C5.14996 8.93108 5.58713 8.75 6.04297 8.75H7.76172M14.6367 6L11.1992 2.5625M11.1992 2.5625L7.76172 6M11.1992 2.5625V14.293" stroke="#7C7E85" stroke-width="2" stroke-linecap="round" stroke-linejoin="round"/>
</g>
</svg>
