<svg width="61" height="62" viewBox="0 0 61 62" fill="none" xmlns="http://www.w3.org/2000/svg">
<path d="M34.8264 4.73318C34.8264 3.57862 34.3678 2.47134 33.5514 1.65494C32.735 0.838533 31.6277 0.379883 30.4731 0.379883C29.3185 0.379883 28.2113 0.838533 27.3949 1.65494C26.5785 2.47134 26.1198 3.57862 26.1198 4.73318V11.6375L21.9406 7.45835C21.5389 7.04276 21.0583 6.71135 20.5271 6.48345C19.9959 6.25555 19.4246 6.13573 18.8466 6.13098C18.2685 6.12623 17.6954 6.23665 17.1605 6.45579C16.6256 6.67493 16.1397 6.9984 15.7311 7.40734C15.3226 7.81627 14.9995 8.30248 14.7809 8.83758C14.5623 9.37269 14.4524 9.94598 14.4577 10.524C14.463 11.102 14.5833 11.6732 14.8117 12.2042C15.0401 12.7352 15.372 13.2154 15.788 13.6168L26.1198 23.9487V26.4997H23.5688L13.2369 16.1679C12.8356 15.7519 12.3553 15.42 11.8243 15.1916C11.2933 14.9632 10.7221 14.8429 10.1441 14.8376C9.5661 14.8323 8.99281 14.9422 8.4577 15.1608C7.92259 15.3794 7.43639 15.7024 7.02746 16.111C6.61852 16.5195 6.29505 17.0054 6.07591 17.5403C5.85677 18.0752 5.74635 18.6484 5.7511 19.2264C5.75585 19.8045 5.87567 20.3758 6.10356 20.907C6.33146 21.4382 6.66288 21.9187 7.07847 22.3205L11.2576 26.4997H4.3533C3.19873 26.4997 2.09145 26.9583 1.27505 27.7747C0.45865 28.5911 0 29.6984 0 30.853C0 32.0076 0.45865 33.1148 1.27505 33.9312C2.09145 34.7476 3.19873 35.2063 4.3533 35.2063H11.2576L7.07847 39.3855C6.28586 40.2069 5.84758 41.3067 5.85803 42.4482C5.86849 43.5896 6.32683 44.6812 7.13435 45.488C7.94188 46.2948 9.03396 46.7521 10.1754 46.7614C11.3168 46.7708 12.4163 46.3315 13.2369 45.5381L23.5688 35.2063H26.1198V37.7573L15.788 48.0892C14.9946 48.9098 14.5553 50.0093 14.5646 51.1507C14.574 52.2921 15.0313 53.3842 15.8381 54.1917C16.6449 54.9993 17.7365 55.4576 18.8779 55.4681C20.0194 55.4785 21.1192 55.0402 21.9406 54.2476L26.1198 50.0685V56.9728C26.1198 58.1274 26.5785 59.2346 27.3949 60.051C28.2113 60.8674 29.3185 61.3261 30.4731 61.3261C31.6277 61.3261 32.735 60.8674 33.5514 60.051C34.3678 59.2346 34.8264 58.1274 34.8264 56.9728V50.0685L39.0056 54.2476C39.827 55.0402 40.9268 55.4785 42.0683 55.4681C43.2097 55.4576 44.3013 54.9993 45.1081 54.1917C45.9149 53.3842 46.3722 52.2921 46.3816 51.1507C46.3909 50.0093 45.9516 48.9098 45.1582 48.0892L34.8264 37.7573V35.2063H37.3774L47.7093 45.5381C48.5299 46.3315 49.6294 46.7708 50.7708 46.7614C51.9123 46.7521 53.0043 46.2948 53.8119 45.488C54.6194 44.6812 55.0777 43.5896 55.0882 42.4482C55.0986 41.3067 54.6604 40.2069 53.8677 39.3855L49.6886 35.2063H56.5929C57.7475 35.2063 58.8548 34.7476 59.6712 33.9312C60.4876 33.1148 60.9462 32.0076 60.9462 30.853C60.9462 29.6984 60.4876 28.5911 59.6712 27.7747C58.8548 26.9583 57.7475 26.4997 56.5929 26.4997H49.6886L53.8677 22.3205C54.6604 21.4991 55.0986 20.3992 55.0882 19.2578C55.0777 18.1164 54.6194 17.0247 53.8119 16.218C53.0043 15.4112 51.9123 14.9539 50.7708 14.9445C49.6294 14.9352 48.5299 15.3745 47.7093 16.1679L37.3774 26.4997H34.8264V23.9487L45.1582 13.6168C45.9516 12.7962 46.3909 11.6967 46.3816 10.5553C46.3722 9.41384 45.9149 8.32176 45.1081 7.51424C44.3013 6.70672 43.2097 6.24837 42.0683 6.23792C40.9268 6.22746 39.827 6.66574 39.0056 7.45835L34.8264 11.6404V4.73318Z" fill="white"/>
</svg>
