<?xml version="1.0" encoding="UTF-8" standalone="no"?>
<svg
   xmlns:dc="http://purl.org/dc/elements/1.1/"
   xmlns:cc="http://creativecommons.org/ns#"
   xmlns:rdf="http://www.w3.org/1999/02/22-rdf-syntax-ns#"
   xmlns:svg="http://www.w3.org/2000/svg"
   xmlns="http://www.w3.org/2000/svg"
   xmlns:sodipodi="http://sodipodi.sourceforge.net/DTD/sodipodi-0.dtd"
   xmlns:inkscape="http://www.inkscape.org/namespaces/inkscape"
   viewBox="0 0 468 468"
   version="1.0"
   id="svg8"
   sodipodi:docname="money_sign.svg"
   inkscape:version="1.0.1 (3bc2e813f5, 2020-09-07)">
  <defs
     id="defs12" />
  <sodipodi:namedview
     pagecolor="#ffffff"
     bordercolor="#666666"
     borderopacity="1"
     objecttolerance="10"
     gridtolerance="10"
     guidetolerance="10"
     inkscape:pageopacity="0"
     inkscape:pageshadow="2"
     inkscape:window-width="1536"
     inkscape:window-height="801"
     id="namedview10"
     showgrid="false"
     inkscape:zoom="1.8162393"
     inkscape:cx="234"
     inkscape:cy="145.90588"
     inkscape:window-x="-8"
     inkscape:window-y="-8"
     inkscape:window-maximized="1"
     inkscape:current-layer="g4" />
  <g
     transform="translate(0 468) scale(.078 -.078)"
     id="g4">
    <path
       d="m 2846.3408,5595 c -22.4982,-237 -31.9534,-305 -40.9534,-305 -7,0 -63.4746,-5 -125.9493,-10 -141.1391,-12 -303.6515,-49 -406.6385,-91 -11.3797,-4 -50.8986,-20 -88.3225,-35 -315.7712,-124 -674.9651,-421 -856.0199,-706 -38.9805,-63 -96.043,-169 -107.1757,-202 -48.5748,-143 -65.4916,-258 -62.9651,-421 6.338,-323 123.897,-591 345.4808,-785 71.1144,-62 76.7346,-66 107.7411,-87 26.2913,-18 232.039,-126 265.71,-140 26.0507,-10 99.5825,-36 111.3927,-38 18.5253,-5 97.4369,-27 116.6775,-35 57.1014,-20 248.7789,-55 410.8803,-75 l 51.3355,-7 -97.8718,-1031 -81.4305,6 c -75.5253,5 -195.1521,30 -218.7281,45 -4.6203,4 -11.3355,7 -14.2406,8 -69.671,14 -253.5266,163 -264.5903,215 -2.9558,11 -8.1963,19 -12.1963,19 -12,0 -62.3745,133 -76.0142,200 l -11.7789,55 -410.2848,-3 -410.18988,-2 0.0195,-63 c 1.33671,-165 32.4393,-343 85.7696,-487 20.8738,-54 81.4381,-185 95.5395,-205 3.5254,-5 23.6775,-35 44.8296,-65 63.1716,-93 181.5903,-215 297.9518,-306 55.8231,-44 229.3809,-154 242.3809,-154 5,0 24.1456,-9 42.1963,-19 32.2913,-18 161.0195,-63 255.4564,-90 60.3862,-17 185.0572,-31 273.0572,-31 h 79 l -61.7038,-650 h 750 l 33.5164,332 34.6114,333 85.5695,6 c 121.8544,9 346.5059,58 439.1132,96 8.2848,3 18.6645,7 22.6645,7 3.095,1 10.3797,4 14.7595,8 4.4746,5 13.7594,8 20.7594,8 16,0 168.645,70 260.2965,119 41.0885,22 81.1769,44 89.5566,48 8.3798,4 21.1392,12 28.6138,17 7.5696,6 38.5631,27 68.3668,46 74.4616,47 238.1821,181 289.4981,237 22.2783,24 52.411,57 66.74,71 39.987,42 150.9858,200 187.346,267 126.0236,232 180.0848,496 147.3489,720 -6.8231,44 -12.5513,89 -14.5071,100 -4.342,28 -87.6917,235 -106.9387,264 -168.888,254 -363.0791,410 -658.2572,524 -133.1586,51 -338.9818,95 -485.3173,102 -57.7152,3 -128.2405,8 -156.9557,11 l -51.5254,5 49.6544,502 50.6543,502 57.8102,-2 c 153.5253,-5 358.0766,-94 437.1533,-188 59.2601,-71 88.9505,-148 88.1664,-230 l -1.1704,-65 h 863 l -0.3927,38 c 0.4616,47 -14.6658,151 -30.9258,222 -100.1805,430 -365.9111,791 -708.6783,962 -127.0195,63 -161.5955,78 -226.0767,94 -4.8101,2 -42.8608,12 -83.8166,23 -40.9558,11 -120.6268,25 -177.0572,31 -56.4304,6 -110.7659,13 -119.4811,16 -16.5254,5 -15.342,28 9.5294,290 l 26.9598,284 h -750 z m -150.4625,-1585 -42.7181,-450 h -57 c -51.905,1 -83.4304,6 -156.8166,23 -29.3355,7 -152.3992,59 -157.7347,66 -2.7152,3 -16.7659,13 -33.0065,21 -51.342,28 -138.8491,128 -167.7736,192 -26.3992,59 -27.4499,69 -19.0012,158 6.5501,69 16.5371,111 34.6191,154 71.8531,167 295.675,281 555.0547,285 l 87.0949,1 z m 834.0304,-1485 c 217.3862,-17 387.7984,-118 446.7489,-266 37.1716,-93 21.325,-281 -31.8389,-367 -94.5242,-153 -353.5867,-259 -636.7765,-261 l -88.0949,-1 42.5282,448 c 23.4474,247 45.9079,452 50.2876,456 4.3797,4 37.3797,4 73.1898,2 35.7153,-3 100.2406,-8 143.9558,-11 z"
       id="path2"
       style="fill:#4d4d4d" />
  </g>
  <metadata
     id="metadata6">
    <rdf:RDF>
      <cc:Work>
        <dc:format>image/svg+xml</dc:format>
        <dc:type
           rdf:resource="http://purl.org/dc/dcmitype/StillImage" />
        <cc:license
           rdf:resource="http://creativecommons.org/licenses/publicdomain/" />
        <dc:publisher>
          <cc:Agent
             rdf:about="http://openclipart.org/">
            <dc:title>Openclipart</dc:title>
          </cc:Agent>
        </dc:publisher>
        <dc:title>Money 4</dc:title>
        <dc:date>2012-02-06T15:16:35</dc:date>
        <dc:description>A Dollar Sign</dc:description>
        <dc:source>http://openclipart.org/detail/167779/money-4-by-dripsandcastle</dc:source>
        <dc:creator>
          <cc:Agent>
            <dc:title>dripsandcastle</dc:title>
          </cc:Agent>
        </dc:creator>
        <dc:subject>
          <rdf:Bag>
            <rdf:li>clip art</rdf:li>
            <rdf:li>clipart</rdf:li>
            <rdf:li>dollar</rdf:li>
            <rdf:li>dollar sign</rdf:li>
            <rdf:li>money</rdf:li>
          </rdf:Bag>
        </dc:subject>
      </cc:Work>
      <cc:License
         rdf:about="http://creativecommons.org/licenses/publicdomain/">
        <cc:permits
           rdf:resource="http://creativecommons.org/ns#Reproduction" />
        <cc:permits
           rdf:resource="http://creativecommons.org/ns#Distribution" />
        <cc:permits
           rdf:resource="http://creativecommons.org/ns#DerivativeWorks" />
      </cc:License>
    </rdf:RDF>
  </metadata>
</svg>
